# Blender 4.2.3 LTS
# www.blender.org
o Píst
v -0.125000 0.678125 0.125000
v 0.125000 0.678125 0.125000
v 0.125000 0.678125 -0.125000
v -0.125000 0.678125 -0.125000
v -0.500000 0.000000 0.500000
v -0.500000 0.750000 0.500000
v 0.500000 0.000000 0.500000
v 0.500000 0.750000 0.500000
v 0.500000 0.000000 -0.500000
v 0.500000 0.750000 -0.500000
v -0.500000 0.000000 -0.500000
v -0.500000 0.750000 -0.500000
vn -0.0000 -0.0000 1.0000
vn 1.0000 -0.0000 -0.0000
vn -0.0000 -0.0000 -1.0000
vn -1.0000 -0.0000 -0.0000
vn -0.0000 1.0000 -0.0000
vn -0.0000 -1.0000 -0.0000
vt 1.000000 0.000000
vt 1.000000 1.000000
vt 0.000000 1.000000
vt 0.000000 0.000000
s 1
f 7/1/1 8/2/1 6/3/1 5/4/1
f 9/1/2 10/2/2 8/3/2 7/4/2
f 11/1/3 12/2/3 10/3/3 9/4/3
f 5/1/4 6/2/4 12/3/4 11/4/4
f 8/1/5 10/2/5 12/3/5 6/4/5
f 9/1/6 7/2/6 5/3/6 11/4/6
f 4/4/6 3/1/6 2/2/6 1/3/6
